<svg xmlns="http://www.w3.org/2000/svg" xmlns:xlink="http://www.w3.org/1999/xlink" viewBox="0,0,256,256" width="48px" height="48px" fill-rule="nonzero"><g fill="#c0ca33" fill-rule="nonzero" stroke="none" stroke-width="1" stroke-linecap="butt" stroke-linejoin="miter" stroke-miterlimit="10" stroke-dasharray="" stroke-dashoffset="0" font-family="none" font-weight="none" font-size="none" text-anchor="none" style="mix-blend-mode: normal"><g transform="scale(5.33333,5.33333)"><path d="M22,39c0,0 0.004,0.572 0.874,0.851c0.622,-1.427 1.084,-2.923 1.355,-4.452c0.64,-3.671 0.118,-7.557 -1.727,-10.749c-0.935,-1.583 -2.187,-2.978 -3.696,-4.065c-1.483,-1.143 -3.237,-1.774 -5.092,-2.642c-1.816,-0.846 -3.586,-1.806 -5.269,-2.909c-1.645,-1.132 -3.327,-2.352 -4.445,-4.034c1.461,1.348 3.248,2.209 4.985,3.092c1.759,0.856 3.564,1.613 5.385,2.335c1.774,0.683 3.81,1.379 5.525,2.617c1.744,1.181 3.239,2.744 4.369,4.541c0.833,1.32 1.433,2.754 1.832,4.24c5.755,-9.906 -6.143,-16.831 -14.096,-17.825c-8,-1 -12,-5 -12,-5c0,0 0.241,12.741 11,23c2.118,2.019 5,4 11,4c1,0 0,7 0,7z"></path><path d="M37,25c-4.688,-1.172 -7.93,-0.343 -10.645,3.034c-0.887,1.104 -1.355,2.49 -1.355,3.907c0,0.019 0,0.039 0,0.059c1,-2 2.324,-2.766 2.763,-3.027c1.735,-1.048 3.685,-1.477 5.571,-1.646c1.891,-0.165 3.787,-0.045 5.593,0.258c0.904,0.125 1.779,0.316 2.638,0.292c0.426,-0.021 0.848,-0.084 1.262,-0.226c0.414,-0.145 0.793,-0.39 1.173,-0.651c-0.537,0.736 -1.385,1.331 -2.351,1.52c-0.954,0.191 -1.904,0.195 -2.811,0.181c-1.816,-0.024 -3.579,0.003 -5.306,0.265c-1.712,0.282 -3.368,0.8 -4.742,1.674c-0.691,0.432 -1.291,0.972 -1.777,1.582c-3.013,3.778 -3.013,7.778 -3.013,7.778c0,0 1,0 1.837,-0.821l0.163,-0.179c0,0 0.003,-1.096 1.218,-2.88c1.34,0.685 8.743,3.727 17.782,-7.12l3,-4.213c0,0 -3,2.213 -11,0.213z"></path></g></g><g fill-opacity="0.67843" fill="#000000" fill-rule="nonzero" stroke="none" stroke-width="1" stroke-linecap="butt" stroke-linejoin="miter" stroke-miterlimit="10" stroke-dasharray="" stroke-dashoffset="0" font-family="none" font-weight="none" font-size="none" text-anchor="none" style="mix-blend-mode: normal"><g><path d="M51.01,215.99667v5.07h-9.29v25.27h-6.25v-25.27h-9.17v-5.07zM60.05,214.33667v11.91c1.6,-1.91333 3.60667,-2.87 6.02,-2.87v0c4.89333,0 7.37333,2.84 7.44,8.52v0v14.44h-6.02v-14.27c0,-1.29333 -0.27667,-2.25 -0.83,-2.87c-0.56,-0.62 -1.48333,-0.93 -2.77,-0.93v0c-1.76667,0 -3.04667,0.68333 -3.84,2.05v0v16.02h-6.02v-32zM82.28,223.79667l4.19,14.02l4.17,-14.02h6.46l-9.07,26.04l-0.5,1.18c-1.34667,2.94667 -3.56667,4.42 -6.66,4.42v0c-0.88,0 -1.77,-0.13 -2.67,-0.39v0v-4.57l0.92,0.02c1.13333,0 1.98333,-0.17333 2.55,-0.52c0.56,-0.34667 1,-0.92333 1.32,-1.73v0l0.71,-1.85l-7.9,-22.6zM99.47,223.79667h5.65l0.18,2.52c1.6,-1.96 3.76,-2.94 6.48,-2.94v0c2.90667,0 4.9,1.14667 5.98,3.44v0c1.58667,-2.29333 3.84333,-3.44 6.77,-3.44v0c2.44667,0 4.26667,0.71 5.46,2.13c1.19333,1.42667 1.79,3.57 1.79,6.43v0v14.4h-6.04v-14.38c0,-1.27333 -0.25,-2.20667 -0.75,-2.8c-0.5,-0.59333 -1.38,-0.89 -2.64,-0.89v0c-1.80667,0 -3.05667,0.86333 -3.75,2.59v0l0.02,15.48h-6.02v-14.36c0,-1.30667 -0.26,-2.25 -0.78,-2.83c-0.51333,-0.58667 -1.38667,-0.88 -2.62,-0.88v0c-1.70667,0 -2.94333,0.71 -3.71,2.13v0v15.94h-6.02zM146.78,246.74667v0c-3.30667,0 -5.99667,-1.01333 -8.07,-3.04c-2.07333,-2.02667 -3.11,-4.72667 -3.11,-8.1v0v-0.59c0,-2.26 0.43667,-4.28333 1.31,-6.07c0.87333,-1.78667 2.11333,-3.16 3.72,-4.12c1.6,-0.96667 3.43,-1.45 5.49,-1.45v0c3.08,0 5.50667,0.97333 7.28,2.92c1.76667,1.94 2.65,4.69667 2.65,8.27v0v2.45h-14.35c0.19333,1.47333 0.78,2.65667 1.76,3.55c0.98,0.88667 2.22,1.33 3.72,1.33v0c2.32,0 4.13333,-0.84 5.44,-2.52v0l2.95,3.31c-0.9,1.28 -2.12,2.27667 -3.66,2.99c-1.54,0.71333 -3.25,1.07 -5.13,1.07zM146.1,228.24667v0c-1.2,0 -2.17,0.40333 -2.91,1.21c-0.74667,0.80667 -1.22333,1.96 -1.43,3.46v0h8.38v-0.48c-0.02667,-1.33333 -0.39,-2.36333 -1.09,-3.09c-0.69333,-0.73333 -1.67667,-1.1 -2.95,-1.1zM165.82,214.33667v32h-6.04v-32zM181.16,246.74667v0c-3.30667,0 -6,-1.01333 -8.08,-3.04c-2.07333,-2.02667 -3.11,-4.72667 -3.11,-8.1v0v-0.59c0,-2.26 0.43667,-4.28333 1.31,-6.07c0.88,-1.78667 2.12,-3.16 3.72,-4.12c1.60667,-0.96667 3.43667,-1.45 5.49,-1.45v0c3.08667,0 5.51333,0.97333 7.28,2.92c1.77333,1.94 2.66,4.69667 2.66,8.27v0v2.45h-14.36c0.2,1.47333 0.78667,2.65667 1.76,3.55c0.98,0.88667 2.22,1.33 3.72,1.33v0c2.32,0 4.13333,-0.84 5.44,-2.52v0l2.96,3.31c-0.9,1.28 -2.12333,2.27667 -3.67,2.99c-1.54,0.71333 -3.24667,1.07 -5.12,1.07zM180.47,228.24667v0c-1.19333,0 -2.16333,0.40333 -2.91,1.21c-0.74,0.80667 -1.21333,1.96 -1.42,3.46v0h8.37v-0.48c-0.02667,-1.33333 -0.38667,-2.36333 -1.08,-3.09c-0.69333,-0.73333 -1.68,-1.1 -2.96,-1.1zM212.99,246.33667h-6.08c-0.28,-0.54667 -0.48333,-1.22 -0.61,-2.02v0c-1.45333,1.62 -3.34667,2.43 -5.68,2.43v0c-2.21333,0 -4.04333,-0.63667 -5.49,-1.91c-1.45333,-1.28 -2.18,-2.89333 -2.18,-4.84v0c0,-2.38667 0.88667,-4.22 2.66,-5.5c1.76667,-1.27333 4.32333,-1.91667 7.67,-1.93v0h2.77v-1.3c0,-1.04 -0.26667,-1.87333 -0.8,-2.5c-0.53333,-0.62 -1.37667,-0.93 -2.53,-0.93v0c-1.01333,0 -1.81,0.24333 -2.39,0.73c-0.57333,0.48667 -0.86,1.15333 -0.86,2v0h-6.02c0,-1.30667 0.40333,-2.51667 1.21,-3.63c0.80667,-1.11333 1.94333,-1.98333 3.41,-2.61c1.47333,-0.63333 3.12667,-0.95 4.96,-0.95v0c2.78,0 4.98667,0.69667 6.62,2.09c1.63333,1.4 2.45,3.36333 2.45,5.89v0v9.77c0.01333,2.14 0.31,3.75667 0.89,4.85v0zM201.93,242.14667v0c0.88667,0 1.70667,-0.19667 2.46,-0.59c0.74667,-0.4 1.3,-0.93333 1.66,-1.6v0v-3.87h-2.25c-3.01333,0 -4.61667,1.04 -4.81,3.12v0l-0.02,0.36c0,0.74667 0.26333,1.36333 0.79,1.85c0.52667,0.48667 1.25,0.73 2.17,0.73zM224.41,246.33667h-6.04v-18.13h-3.36v-4.41h3.36v-1.92c0,-2.52667 0.72333,-4.49 2.17,-5.89c1.45333,-1.39333 3.48667,-2.09 6.1,-2.09v0c0.83333,0 1.85333,0.14 3.06,0.42v0l-0.06,4.66c-0.5,-0.12 -1.11333,-0.18 -1.84,-0.18v0c-2.26,0 -3.39,1.06 -3.39,3.18v0v1.82h4.48v4.41h-4.48z"></path></g></g></svg>